HIERARCHY
ROOT pelvis
{
  OFFSET 0 100 0
  CHANNELS 6 Xposition Yposition Zposition Zrotation Xrotation Yrotation
  JOINT pelvis_right_femur
  {
    OFFSET -10.78128 -3.44521 -0.5502486
    CHANNELS 3 Zrotation Xrotation Yrotation
    JOINT right_femur_tibia
    {
      OFFSET -0.8047443 -44.0398 -0.1307829
      CHANNELS 3 Zrotation Xrotation Yrotation
      JOINT right_tibia_foot
      {
        OFFSET 3.006224 -47.83518 -5
        CHANNELS 3 Zrotation Xrotation Yrotation
        End Site
        {
          OFFSET 0 -5 15
        }
      }
    }
  }
  JOINT pelvis_left_femur
  {
    OFFSET 10.78128 -3.44521 -0.5502486
    CHANNELS 3 Zrotation Xrotation Yrotation
    JOINT left_femur_tibia
    {
      OFFSET 0.8047443 -44.0398 -0.1307829
      CHANNELS 3 Zrotation Xrotation Yrotation
      JOINT left_tibia_foot
      {
        OFFSET -4.370144 -48.10324 -4.275266
        CHANNELS 3 Zrotation Xrotation Yrotation
        End Site
        {
          OFFSET 0 -5 15
        }
      }
    }
  }
  JOINT pelvis_spine1
  {
    OFFSET 0 6.468898 -3.129235
    CHANNELS 3 Zrotation Xrotation Yrotation
    JOINT spine1
    {
      OFFSET 0 23.15396 4.99043
      CHANNELS 3 Zrotation Xrotation Yrotation
      JOINT spine2
      {
        OFFSET 0 20.79997 -5.064912
        CHANNELS 3 Zrotation Xrotation Yrotation
        JOINT neck
        {
          OFFSET 0 14.38658 9.616178
          CHANNELS 3 Zrotation Xrotation Yrotation
          End Site
          {
            OFFSET 0 20 0
          }
        }
      }
      JOINT right_manubrium
      {
        OFFSET -5.722621 16.35077 3.967754
        CHANNELS 3 Zrotation Xrotation Yrotation
        JOINT right_clavicle
        {
          OFFSET -13.16364 1.694482 -4.693211
          CHANNELS 3 Zrotation Xrotation Yrotation
          JOINT right_humerus
          {
            OFFSET -28.5034 -0.3100689 -2.792744
            CHANNELS 3 Zrotation Xrotation Yrotation
            JOINT right_radius
            {
              OFFSET -25.15693 0.02248979 -1.271978
              CHANNELS 3 Zrotation Xrotation Yrotation
              End Site
              {
                OFFSET -15 0 0
              }
            }
          }
        }
      }
      JOINT left_manubrium
      {
        OFFSET 5.722621 16.35077 3.967754
        CHANNELS 3 Zrotation Xrotation Yrotation
        JOINT left_clavicle
        {
          OFFSET 13.16364 1.694482 -4.693211
          CHANNELS 3 Zrotation Xrotation Yrotation
          JOINT left_humerus
          {
            OFFSET 29.39168 -1.063119 -2.237045
            CHANNELS 3 Zrotation Xrotation Yrotation
            JOINT left_radius
            {
              OFFSET 24.59957 -0.9528479 0.9047498
              CHANNELS 3 Zrotation Xrotation Yrotation
              End Site
              {
                OFFSET 15 -0 -0
              }
            }
          }
        }
      }
    }
  }
}
MOTION
Frames: 23
Frame Time: 0.0416666666667
0 103.5113 0 1.078714 -1.892434 -0.05316124 3.015679 -14.35137 8.911549 -0 37.57631 -0 -6.09401 -15.6853 -3.585188 -7.252044 10.06952 -22.34257 -0 4.037116 -0 11.88625 -14.95187 28.5291 -3.377134 -4.176501 5.06076 2.141317 10.00709 -7.187099 1.967973 22.62997 5.777167 2.036847 -24.63049 9.819485 4.277306 -20.92079 11.09666 87.01294 32.03925 -17.8974 -0 0 16.09665 -8.063234 7.720286 4.810173 6.272547 -19.73502 -1.174819 -93.15975 22.26185 21.03472 0 0 -12.96706 14.02117 17.1883 -1.901713
0.29147 103.0458 2.012087 0.4723919 -0.9795471 -0.1025671 4.107177 -18.62553 8.751549 -0 36.10598 -0 -5.953131 -13.81259 -3.202726 -6.735929 10.71581 -21.70936 -0 4.484188 -0 11.2484 -16.06577 27.43169 -3.068377 -3.617044 4.697362 2.448473 10.0792 -7.535612 1.730041 22.02098 6.285431 2.437727 -25.18673 9.828755 4.712104 -20.6249 11.41987 86.91635 32.69605 -18.59151 -0 0 15.69558 -8.247787 8.033679 4.969762 6.371209 -20.14637 -1.394076 -92.69346 22.33356 20.64504 0 0 -14.89542 13.51038 16.52494 -1.247976
0.6275124 102.2957 4.715263 -0.558163 -0.1184971 0.01837621 5.241445 -25.62258 6.877885 -0 31.46397 -0 -5.873406 -8.551918 -2.32183 -5.758128 11.63673 -19.01071 -0 4.939967 -0 8.991761 -18.46143 24.26474 -2.443802 -2.212244 3.850444 2.857308 10.32029 -8.077767 1.304188 21.10184 7.198985 3.112006 -25.78226 9.709765 4.571384 -19.96794 11.88986 87.36118 31.9431 -19.65227 -0 0 14.16115 -10.49844 8.688915 6.188874 6.77079 -21.32101 -2.135189 -90.98751 21.3596 18.65431 0 0 -18.25679 13.08949 14.95927 -1.072847
0.9709976 101.4745 7.775908 -0.9861599 1.044579 0.2506271 5.946134 -29.5997 6.312715 -0 27.89864 -0 -5.888676 -6.693507 -1.786783 -5.511355 12.34035 -18.00061 -0 5.98442 -0 8.12506 -19.58664 22.56829 -2.315965 -1.676579 3.585369 3.226991 10.21721 -8.433256 1.103915 20.52151 7.643105 3.475228 -26.34039 9.721186 4.872518 -19.40048 12.05965 87.40605 32.80358 -20.46605 -0 0 13.27804 -10.64654 9.094123 6.401261 6.915554 -21.80718 -2.232194 -90.14362 21.2407 17.75791 0 0 -20.4284 12.89107 14.01909 -0.8992929
1.325413 100.4889 11.30484 -1.199471 1.691549 0.5603776 6.035731 -32.3035 5.021014 -0 23.72053 -0 -6.04186 -4.533292 -1.21216 -5.410103 12.95194 -16.60232 -0 7.054082 -0 7.043865 -20.56774 20.75013 -2.25233 -1.188437 3.353052 3.449283 10.15798 -8.647804 0.9416714 20.20236 7.980187 3.739152 -26.58722 9.659292 4.719194 -18.83186 12.13219 87.82124 32.80467 -21.20138 -0 0 12.00694 -11.37193 9.403706 6.824263 7.134629 -22.44854 -2.445794 -89.07075 20.76582 16.40523 0 0 -22.48236 12.9951 13.18187 -1.219524
1.675921 99.32016 15.29719 -1.172051 1.667785 0.9037727 5.503651 -33.31053 3.307611 -0 19.95477 -0 -6.261935 -2.584296 -0.9164798 -5.420178 13.55196 -15.13792 -0 8.051343 -0 5.599281 -21.36085 19.0038 -2.246682 -0.8324831 3.127743 3.483012 10.08728 -8.698967 0.8364291 20.21578 8.142465 3.866305 -26.38528 9.467906 4.246239 -18.27829 12.07699 88.43453 31.9951 -21.77998 -0 0 10.63107 -12.54841 9.591673 7.403808 7.305651 -23.04846 -2.809391 -88.08996 20.53339 14.95696 0 0 -24.07299 12.57239 12.73577 -0.9610363
2.010989 97.97803 19.79083 -0.971063 1.110115 1.264495 4.592251 -33.08788 1.294789 -0 16.4383 -0 -6.483254 -0.7010943 -0.8416538 -5.470072 14.16415 -13.47756 -0 9.213362 -0 3.868385 -21.87777 17.21273 -2.218542 -0.607989 2.916555 3.357254 10.07695 -8.664764 0.7561723 20.44426 8.167551 3.880309 -25.81197 9.146364 3.491853 -17.75399 11.96465 89.29563 30.44732 -22.33348 -0 0 9.120225 -14.18517 9.725492 8.101975 7.458075 -23.7146 -3.32311 -87.05343 20.22124 13.30144 0 0 -25.49991 11.9668 12.50946 -0.5352376
2.318456 96.5344 24.79471 -0.6679525 0.3228 1.635215 3.690467 -32.07642 -0.5276137 -0 13.29222 -0 -6.631676 0.8852906 -1.005143 -5.536248 14.79178 -11.83282 -0 10.85213 -0 2.097643 -21.99361 15.51518 -2.148613 -0.5651748 2.761202 3.140157 10.11547 -8.603912 0.7020178 20.75647 8.068267 3.809194 -25.02961 8.741234 2.675921 -17.26705 11.82969 90.2704 28.68674 -22.92566 -0 0 7.635568 -15.88192 9.862933 8.753417 7.549831 -24.37088 -3.887072 -86.04536 19.90439 11.6674 0 0 -26.87217 11.20279 12.39138 0.1199343
2.584161 95.08303 30.31258 -0.3321455 -0.5523172 1.999116 3.037599 -30.52001 -1.930976 -0 10.60427 -0 -6.702102 2.170748 -1.372432 -5.573536 15.40114 -10.26914 -0 13.30517 -0 0.4401478 -21.55948 13.97685 -1.981752 -0.7388008 2.680465 2.862182 10.24336 -8.553728 0.6647985 21.07003 7.861889 3.673729 -24.1455 8.275603 1.876617 -16.85802 11.71159 91.34081 26.90844 -23.61772 -0 0 6.235764 -17.49072 10.04366 9.292643 7.55765 -25.01856 -4.472096 -85.09642 19.50962 10.19694 0 0 -28.28592 10.40808 12.31106 0.8972974
2.791635 93.7605 36.32964 -0.06624995 -1.351227 2.326266 2.855947 -28.67484 -2.646867 -0 8.612493 -0 -6.678137 3.119586 -1.942114 -5.510503 15.91198 -8.895483 -0 16.97283 -0 -0.9866462 -20.40316 12.66192 -1.655439 -1.148786 2.689702 2.567919 10.49715 -8.561672 0.6344583 21.27354 7.571473 3.500342 -23.29732 7.773787 1.226154 -16.57552 11.64988 92.42219 25.38764 -24.44727 -0 0 5.058261 -18.83975 10.3357 9.680932 7.429611 -25.60778 -5.036286 -84.28901 19.05052 9.141799 0 0 -29.72005 9.576819 12.17868 1.86555
2.926005 92.75407 42.79912 -0.0189196 -1.873623 2.568944 3.357727 -26.82102 -2.426775 -0 7.645743 -0 -6.587843 3.714218 -2.645166 -5.246921 16.13032 -7.84592 -0 22.36666 -0 -2.052494 -18.30335 11.61928 -1.092956 -1.784885 2.809982 2.324021 10.93147 -8.68572 0.5877474 21.22507 7.248709 3.329731 -22.6965 7.274043 0.89133 -16.49838 11.70426 93.39165 24.46603 -25.43359 -0 0 4.289161 -19.73562 10.81637 9.90261 7.096241 -26.07249 -5.522072 -83.74667 18.52513 8.864519 0 0 -31.05385 8.75596 11.884 3.032568
2.985803 92.29023 49.62319 -0.3483093 -1.911886 2.669453 4.6857 -25.18336 -1.104731 -0 8.011232 -0 -6.499597 3.95352 -3.322046 -4.687863 15.67473 -7.25462 -0 29.94908 -0 -2.652409 -15.10009 10.86963 -0.2567628 -2.551698 3.073262 2.22229 11.59435 -8.972555 0.4959827 20.7795 6.978457 3.220985 -22.60781 6.834774 1.072455 -16.71541 11.94568 94.05394 24.54494 -26.50763 -0 0 4.164296 -19.99647 11.55177 9.997723 6.480122 -26.31692 -5.850682 -83.63716 17.9589 9.796588 0 0 -31.99568 8.000612 11.30017 4.381104
3.005015 92.5626 56.64001 -1.084399 -1.45461 2.582436 6.698915 -23.59827 1.144863 -0 9.707795 -0 -6.516872 3.850024 -3.719445 -3.838309 13.90713 -7.112981 -0 39.69761 -0 -2.786 -10.94226 10.4199 0.7523357 -3.208096 3.524007 2.328196 12.4892 -9.384536 0.3554091 19.92568 6.843122 3.233088 -23.17429 6.521194 1.866177 -17.28348 12.41753 94.16855 25.79646 -27.36957 -0 0 4.88086 -19.65048 12.51707 10.10899 5.547127 -26.25063 -5.965019 -84.12863 17.40277 12.19226 0 0 -32.03981 7.356961 10.3867 5.814648
3.063733 93.57134 63.63176 -1.885178 -1.018415 2.274861 8.604136 -21.12595 3.488 -0 11.97985 -0 -6.631173 3.322342 -3.678603 -2.935161 10.09189 -7.07873 -0 50.27846 -0 -2.657454 -6.68321 10.38311 1.562187 -3.376873 4.219359 2.553552 13.49996 -9.680697 0.2566791 19.00215 6.807944 3.359278 -24.02618 6.357954 3.011666 -18.1354 13.02663 93.49236 27.64562 -27.33659 -0 0 6.457703 -19.19971 13.50012 10.47458 4.42396 -25.83596 -5.899101 -85.24475 16.95818 15.61834 0 0 -30.61062 6.760881 9.323665 7.174646
3.228596 94.97222 70.35464 -2.025309 -1.613155 1.701353 9.103006 -16.37702 4.713298 -0 13.30123 -0 -6.556163 1.968516 -3.430933 -2.348508 4.048679 -6.627525 -0 58.63097 -0 -2.656174 -3.85534 11.06079 1.635396 -2.793727 5.201726 2.564236 14.33279 -9.408487 0.399167 18.70824 6.624096 3.440875 -24.10816 6.274423 3.758793 -19.03194 13.45525 91.96544 28.58542 -25.6284 -0 0 8.663944 -19.42136 14.10033 11.17608 3.503638 -25.10185 -5.775175 -86.70731 16.83212 18.71426 0 0 -27.61177 6.029544 8.543396 8.271863
3.448566 96.2239 76.60214 -1.158226 -3.516515 0.9342104 7.895276 -9.286988 4.643961 -0 12.59039 -0 -6.072806 -0.8940113 -3.365534 -2.086196 -3.229739 -5.776097 -0 61.68078 -0 -3.013984 -3.340134 12.51219 0.8736082 -1.693739 6.370101 2.076492 14.59167 -8.322165 0.8565572 19.447 6.068251 3.277172 -22.73324 6.168134 3.496759 -19.70561 13.41765 90.05872 27.70649 -22.41482 -0 0 11.15976 -20.23596 14.0246 11.76828 3.22797 -24.08928 -5.589903 -88.11204 17.31858 20.32429 0 0 -24.00134 5.140123 8.42104 8.936306
3.607249 96.95747 82.31715 0.001271067 -5.301928 0.1587577 6.318548 -2.05315 4.257681 -0 10.31229 -0 -5.617848 -5.264201 -3.242081 -1.591932 -10.45977 -5.03128 -0 58.92574 -0 -3.408802 -4.072313 14.2061 -0.08753378 -0.6801697 7.381022 1.331093 14.13275 -6.877104 1.28954 20.67519 5.404118 2.944113 -20.87583 6.021496 2.631817 -20.15148 13.10647 88.26237 26.56524 -18.86346 -0 0 13.63614 -20.61272 13.45749 11.792 3.56684 -22.92093 -5.157314 -89.27041 18.42261 20.91561 0 0 -21.21622 4.44598 8.818732 9.097435
3.689853 97.02072 87.64887 0.5860391 -5.750928 -0.6231081 5.484275 3.51509 4.011463 -0 7.692717 -0 -5.420148 -9.684634 -2.620018 -0.3008696 -17.11465 -4.162429 -0 51.5854 -0 -3.336285 -4.539201 15.75711 -0.6630885 -0.1330444 7.9729 0.7440206 13.41345 -5.768493 1.296166 21.48634 5.090435 2.685722 -19.81037 5.808919 1.956187 -20.76196 12.91356 86.36142 26.84087 -15.57164 -0 0 16.04512 -20.67521 12.96284 11.83068 4.045381 -21.90732 -4.563753 -90.10949 19.50099 21.67847 0 0 -19.84566 4.063457 9.083213 9.135876
3.812608 96.42029 92.88003 0.4479157 -5.136757 -1.448665 5.377383 7.477508 3.91086 -0 6.058522 -0 -4.945972 -12.80501 -1.658541 1.762699 -22.6279 -2.615323 -0 41.08329 -0 -2.72015 -4.443928 16.90632 -0.7458299 -0.1210868 8.250961 0.4066579 13.01819 -5.239404 0.9109536 21.35962 5.125544 2.530989 -19.60974 5.482464 1.817501 -21.98339 12.93511 84.12019 27.93684 -12.42049 -0 0 18.83461 -21.39878 13.13526 12.85954 4.213968 -21.2196 -4.14079 -90.71342 19.84981 23.4353 0 0 -19.49374 3.39805 8.663222 10.04535
4.117232 95.36901 98.31204 -0.1276581 -3.952877 -2.291287 5.514319 10.44943 3.975682 -0 6.280199 -0 -4.027945 -14.95024 -0.7162495 3.801704 -26.29991 -0.8673223 -0 29.61369 -0 -1.88673 -4.171539 17.2749 -0.5013184 -0.5189935 8.41364 0.2925001 12.82881 -5.133162 0.4405638 20.43601 5.2342 2.356957 -19.87248 5.140245 2.262863 -23.62915 12.98166 81.55777 28.92964 -9.298179 -0 0 22.11644 -22.61397 13.95083 14.88523 3.904111 -20.56583 -3.853245 -91.38536 19.64954 26.28972 0 0 -19.24091 1.99632 7.630696 12.33405
4.63342 94.11465 104.1562 -0.6757642 -2.697662 -3.119576 5.344765 13.2397 3.924004 -0 7.857156 -0 -3.088747 -17.07422 0.02186747 4.707116 -28.15365 -0.0609855 -0 19.96232 -0 -1.453825 -4.202823 17.20005 -0.3115891 -0.9425288 8.48736 0.327349 12.15926 -5.055755 0.2106431 19.64328 5.273587 2.132117 -20.15841 5.053554 2.820819 -24.75626 12.68386 79.05049 29.50453 -6.308457 -0 0 24.87155 -23.45071 14.40875 16.8219 3.440075 -19.47765 -3.313879 -92.29938 19.80462 28.94447 0 0 -17.86945 0.2966771 6.631368 14.96054
5.244356 92.76419 110.4528 -0.8127032 -2.10127 -3.929877 4.580208 16.35576 3.443147 -0 9.757051 -0 -2.465034 -18.7441 0.5240794 4.099098 -28.77949 -0.6730656 -0 14.04101 -0 -1.931957 -4.781168 17.60275 -0.5114049 -1.000655 8.381573 0.3186716 10.76472 -4.624157 0.3894779 19.89637 5.298111 1.981364 -20.07789 5.397435 2.731042 -24.59827 11.85029 77.39834 29.37495 -3.86432 -0 0 25.8632 -23.64934 13.49596 17.60957 3.353769 -17.91171 -2.434188 -93.29695 20.83295 29.75364 0 0 -14.87297 -0.8872414 6.337496 16.35592
5.815632 91.40259 117.1318 -0.5592006 -2.510803 -4.692832 3.442392 19.30813 2.717501 -0 12.23267 -0 -2.250188 -18.36806 0.7725277 2.505691 -28.38303 -2.26509 -0 11.90064 -0 -3.046041 -5.717107 18.66201 -1.036972 -0.7370489 8.079439 0.1280301 9.259666 -3.834276 0.896891 21.06179 5.341232 1.9996 -19.62358 6.023845 1.859178 -23.45607 10.79954 77.21999 28.32036 -2.446172 -0 0 25.12959 -23.63193 11.45509 17.28074 3.693912 -16.32511 -1.657944 -94.16519 22.26484 28.83861 0 0 -11.07454 -1.258352 6.858883 16.24089
